<?xml version="1.0" ?><!DOCTYPE svg  PUBLIC '-//W3C//DTD SVG 1.1//EN'  'http://www.w3.org/Graphics/SVG/1.1/DTD/svg11.dtd'><svg enable-background="new 0 0 300 300" height="300px" id="Layer_1" version="1.1" viewBox="0 0 300 300" width="300px" xml:space="preserve" xmlns="http://www.w3.org/2000/svg" xmlns:xlink="http://www.w3.org/1999/xlink"><path d="  M203,178.5H50.551c1.053,28.343,24.349,64,52.949,64h92c28.6,0,51.896-35.657,52.949-64H203" fill="none" stroke="#000000" stroke-linecap="round" stroke-linejoin="round" stroke-miterlimit="10" stroke-width="7"/><line fill="none" stroke="#000000" stroke-linecap="round" stroke-linejoin="round" stroke-miterlimit="10" stroke-width="7" x1="39" x2="52" y1="178.5" y2="178.5"/><line fill="none" stroke="#000000" stroke-linecap="round" stroke-linejoin="round" stroke-miterlimit="10" stroke-width="7" x1="248" x2="261" y1="178.5" y2="178.5"/><line fill="none" stroke="#000000" stroke-linecap="round" stroke-linejoin="round" stroke-miterlimit="10" stroke-width="7" x1="97.958" x2="92.041" y1="244.323" y2="258.676"/><line fill="none" stroke="#000000" stroke-linecap="round" stroke-linejoin="round" stroke-miterlimit="10" stroke-width="7" x1="203.042" x2="208.959" y1="244.323" y2="258.676"/><path d="  M82,132v-10c0-8.837-7.164-16-16-16s-16,7.163-16,16v57" fill="none" stroke="#000000" stroke-linecap="round" stroke-linejoin="round" stroke-miterlimit="10" stroke-width="6"/><line fill="none" stroke="#000000" stroke-linecap="round" stroke-linejoin="round" stroke-miterlimit="10" stroke-width="6" x1="71" x2="94" y1="133" y2="133"/><g><rect fill="none" height="37" stroke="#000000" stroke-linecap="round" stroke-linejoin="round" stroke-miterlimit="10" stroke-width="6" width="33" x="169" y="178"/><line fill="none" stroke="#000000" stroke-linecap="round" stroke-linejoin="round" stroke-miterlimit="10" stroke-width="7" x1="170" x2="201" y1="196.5" y2="196.5"/></g></svg>