<?xml version="1.0" ?><!DOCTYPE svg  PUBLIC '-//W3C//DTD SVG 1.1//EN'  'http://www.w3.org/Graphics/SVG/1.1/DTD/svg11.dtd'><svg enable-background="new 0 0 300 300" height="300px" id="Layer_1" version="1.1" viewBox="0 0 300 300" width="300px" xml:space="preserve" xmlns="http://www.w3.org/2000/svg" xmlns:xlink="http://www.w3.org/1999/xlink"><g><path d="   M243.08,187c-0.034-46-41.447-84.837-92.528-84.837S58.058,141,58.023,187H243.08z" fill="none" stroke="#000000" stroke-linecap="round" stroke-linejoin="round" stroke-miterlimit="10" stroke-width="6"/><line fill="none" stroke="#000000" stroke-linecap="round" stroke-linejoin="round" stroke-miterlimit="10" stroke-width="6" x1="39" x2="61" y1="187" y2="187"/><line fill="none" stroke="#000000" stroke-linecap="round" stroke-linejoin="round" stroke-miterlimit="10" stroke-width="6" x1="240" x2="261" y1="187" y2="187"/></g><g><line fill="none" stroke="#000000" stroke-linecap="round" stroke-linejoin="round" stroke-miterlimit="10" stroke-width="6" x1="149" x2="149" y1="72" y2="86"/><line fill="none" stroke="#000000" stroke-linecap="round" stroke-linejoin="round" stroke-miterlimit="10" stroke-width="6" x1="131" x2="168" y1="72" y2="72"/></g><g><g><path d="M131.811,160.623c0,1.48-1.146,2.628-2.627,2.628h-16.912c0,0,0,0-0.051,0h-0.047c-0.717,0-1.482-0.287-1.959-0.859    c-1.004-1.1-0.908-2.724,0.143-3.729l14.145-12.804c1.385-1.242,2.006-2.866,2.006-4.586c0-1.53-0.525-2.964-1.576-4.157    c-1.244-1.386-2.916-2.007-4.588-2.007c-1.48,0-2.961,0.525-4.156,1.576l-1.48,1.338c-1.1,1.003-2.725,0.908-3.729-0.19    c-0.955-1.1-0.906-2.724,0.193-3.727l1.48-1.338c2.148-2.007,4.969-2.964,7.691-2.964c3.105,0,6.26,1.291,8.506,3.775    c2.006,2.15,2.961,4.97,2.961,7.693c0,3.105-1.289,6.258-3.775,8.504l-9.029,8.17h10.178    C130.664,157.947,131.811,159.142,131.811,160.623z"/><path d="M162.535,154.363c0,1.482-1.193,2.628-2.674,2.628h-0.479v3.632c0,1.48-1.148,2.628-2.629,2.628    c-1.479,0-2.627-1.147-2.627-2.628v-3.632h-14.955h-0.047h-0.049c-0.572,0-1.145-0.143-1.625-0.573    c-1.193-0.907-1.338-2.531-0.428-3.679l17.678-21.978c0.047,0,0.047-0.048,0.094-0.096c0.049-0.048,0.096-0.096,0.145-0.192    c0.143-0.046,0.189-0.095,0.238-0.143c0.047-0.048,0.143-0.096,0.193-0.144c0.092-0.048,0.143-0.095,0.285-0.095    c0.049-0.096,0.096-0.144,0.191-0.144c0.047-0.048,0.143-0.048,0.285-0.096c0.049,0,0.145,0,0.191-0.049c0.096,0,0.238,0,0.334,0    c0,0,0.051,0,0.096,0c0.051,0,0.051,0,0.098,0c0.096,0,0.238,0,0.287,0c0.094,0.049,0.143,0.049,0.238,0.049    c0.047,0.048,0.189,0.048,0.285,0.096c0.049,0,0.145,0.048,0.191,0.048c0.096,0.096,0.191,0.143,0.238,0.19    c0.096,0.048,0.143,0.096,0.238,0.144c0,0,0.051,0,0.051,0.048c0.047,0,0.143,0.049,0.143,0.095    c0.096,0.097,0.143,0.145,0.191,0.192c0.047,0.048,0.096,0.143,0.143,0.19s0.096,0.096,0.191,0.239    c0,0.049,0.047,0.143,0.096,0.191c0.047,0.096,0.047,0.144,0.094,0.286c0,0.048,0.049,0.144,0.049,0.191    c0.047,0.095,0.047,0.143,0.047,0.287c0,0.096,0.049,0.143,0.049,0.238c0,0.048,0,0.096,0,0.144v19.303h0.479    C161.342,151.736,162.535,152.93,162.535,154.363z M154.127,139.936l-9.508,11.801h9.508V139.936z"/></g><g><path d="M167.506,160.623v-28.189c0-1.481,1.146-2.629,2.627-2.629c1.482,0,2.678,1.147,2.678,2.629V143.9h12.373v-11.467    c0-1.481,1.146-2.629,2.627-2.629c1.482,0,2.676,1.147,2.676,2.629v28.189c0,1.48-1.193,2.628-2.676,2.628    c-1.48,0-2.627-1.147-2.627-2.628v-11.468h-12.373v11.468c0,1.48-1.195,2.628-2.678,2.628    C168.652,163.251,167.506,162.104,167.506,160.623z"/></g></g><polygon fill="none" points="  244.905,219 55.095,219 57.749,201 242.25,201 " stroke="#000000" stroke-linecap="round" stroke-linejoin="round" stroke-miterlimit="10" stroke-width="6"/></svg>