<?xml version="1.0" ?><!DOCTYPE svg  PUBLIC '-//W3C//DTD SVG 1.1//EN'  'http://www.w3.org/Graphics/SVG/1.1/DTD/svg11.dtd'><svg enable-background="new 0 0 300 300" height="300px" id="Layer_1" version="1.1" viewBox="0 0 300 300" width="300px" xml:space="preserve" xmlns="http://www.w3.org/2000/svg" xmlns:xlink="http://www.w3.org/1999/xlink"><g><path d="M75,119v82.945C75,215.989,86.518,228,100.562,228   h96.164C210.77,228,221,215.989,221,201.945V119H75z" fill="none" stroke="#000000" stroke-miterlimit="10" stroke-width="6"/><path d="M232.859,198.869   c1.975,0.348,3.45,0.532,5.174,0.532c15.154,0,27.438-13.945,27.438-31.15c0-17.203-12.283-31.149-27.438-31.149   c-1.771,0-3.28,0.195-5.339,0.562" fill="none" stroke="#000000" stroke-linecap="round" stroke-miterlimit="10" stroke-width="6"/><path d="M232.641,185.464   c2.062,0.789,3.536,1.224,5.393,1.224c8.119,0,14.725-8.271,14.725-18.437c0-10.164-6.605-18.435-14.725-18.435   c-2.014,0-3.579,0.511-5.932,1.433" fill="none" stroke="#000000" stroke-linecap="round" stroke-miterlimit="10" stroke-width="6"/><path d="   M186,134.347l-14,6.719V181h28v-39.935L186,134.347z M187.551,157.705c-2.913,0-5.273-2.362-5.273-5.274   c0-2.91,2.36-5.272,5.273-5.272c2.911,0,5.273,2.362,5.273,5.272C192.824,155.343,190.462,157.705,187.551,157.705z" fill="none" stroke="#000000" stroke-linecap="round" stroke-linejoin="round" stroke-miterlimit="10" stroke-width="6"/><path d="   M186,147v-36.28c0-4.916-4.086-8.9-9-8.9c-4.916,0-9,3.984-9,8.9V117" fill="none" stroke="#000000" stroke-linecap="round" stroke-linejoin="round" stroke-miterlimit="10" stroke-width="6"/></g></svg>