<?xml version="1.0" ?><!DOCTYPE svg  PUBLIC '-//W3C//DTD SVG 1.1//EN'  'http://www.w3.org/Graphics/SVG/1.1/DTD/svg11.dtd'><svg enable-background="new 0 0 300 300" height="300px" id="Layer_1" version="1.1" viewBox="0 0 300 300" width="300px" xml:space="preserve" xmlns="http://www.w3.org/2000/svg" xmlns:xlink="http://www.w3.org/1999/xlink"><path d="  M233,171V76c0-5.523-3.477-9-9-9H76c-5.523,0-11,3.477-11,9v45" fill="none" stroke="#000000" stroke-linecap="round" stroke-linejoin="round" stroke-miterlimit="10" stroke-width="6"/><line fill="none" stroke="#000000" stroke-linecap="round" stroke-linejoin="round" stroke-miterlimit="10" stroke-width="6" x1="180" x2="180" y1="51" y2="79"/><line fill="none" stroke="#000000" stroke-linecap="round" stroke-linejoin="round" stroke-miterlimit="10" stroke-width="6" x1="120" x2="120" y1="51" y2="79"/><g><path d="   M99,172v16.5c0,9.389-7.111,17.5-16.5,17.5h135c17.673,0,31.5-14.827,31.5-32.5V172H99z" fill="none" stroke="#000000" stroke-linecap="round" stroke-linejoin="round" stroke-miterlimit="10" stroke-width="6"/><path d="   M82.5,206c-9.389,0-17.5-8.111-17.5-17.5V172" fill="none" stroke="#000000" stroke-linecap="round" stroke-linejoin="round" stroke-miterlimit="10" stroke-width="6"/></g><polyline fill="none" points="  91.447,123 104.553,136.106 91.447,149.213 " stroke="#000000" stroke-linecap="round" stroke-linejoin="round" stroke-miterlimit="10" stroke-width="6"/><path d="  M103.821,135.896c0,0-66.682,0.069-66.905,0.06" fill="none" stroke="#000000" stroke-linecap="round" stroke-linejoin="round" stroke-miterlimit="10" stroke-width="6"/><line fill="none" stroke="#000000" stroke-linecap="round" stroke-linejoin="round" stroke-miterlimit="10" stroke-width="6" x1="65" x2="233" y1="107" y2="107"/><path d="  M233,202v14v-1c0,5.523-3.477,11-9,11H76c-5.523,0-11-5.477-11-11v-64" fill="none" stroke="#000000" stroke-linecap="round" stroke-linejoin="round" stroke-miterlimit="10" stroke-width="6"/></svg>