<?xml version="1.0" ?><!DOCTYPE svg  PUBLIC '-//W3C//DTD SVG 1.1//EN'  'http://www.w3.org/Graphics/SVG/1.1/DTD/svg11.dtd'><svg enable-background="new 0 0 300 300" height="300px" id="Layer_1" version="1.1" viewBox="0 0 300 300" width="300px" xml:space="preserve" xmlns="http://www.w3.org/2000/svg" xmlns:xlink="http://www.w3.org/1999/xlink"><path d="  M182,97h-64.135L116,67c0,0,16-4,35-4s34,4,34,4L182,97z" fill="none" stroke="#000000" stroke-linecap="round" stroke-linejoin="round" stroke-miterlimit="10" stroke-width="6"/><path d="  M117.865,97c-1.594,3.979-2.48,8.317-2.48,12.866c0,19.117,15.498,34.615,34.616,34.615c19.117,0,34.616-15.498,34.616-34.615  c0-4.549-0.886-8.888-2.48-12.866H117.865z" fill="none" stroke="#000000" stroke-linecap="round" stroke-linejoin="round" stroke-miterlimit="10" stroke-width="6"/><line fill="none" stroke="#000000" stroke-linecap="round" stroke-linejoin="round" stroke-miterlimit="10" stroke-width="6" x1="118" x2="183" y1="80" y2="80"/><path d="  M221.87,220.19l-0.006-0.02c-0.18-3.697-0.974-5.764-1.669-8.545c-1.148-4.658-2.759-9.138-4.761-13.399l-0.081-0.277  c-8.929-18.852-25.754-33.257-46.196-38.886l-19.01,19.01l-19.071-19.071c-20.546,5.584-37.465,20.024-46.428,38.947l-0.081,0.277  c-2.002,4.262-3.613,8.741-4.761,13.399c-0.696,2.781-1.49,4.848-1.669,8.545l-0.006,0.02c-0.021,0.394-0.032,1.171-0.033,1.583  c0,4.53,2.768,6.082,5.543,7.95c0.132,0.093,0.263,0.186,0.395,0.276h0.014h131.903h0.014c0.131-0.091,0.263-0.184,0.395-0.276  c2.775-1.868,5.543-3.42,5.543-7.95C221.902,221.361,221.891,220.584,221.87,220.19z" fill="none" stroke="#000000" stroke-linecap="round" stroke-linejoin="round" stroke-miterlimit="10" stroke-width="6"/><line fill="none" stroke="#000000" stroke-linecap="round" stroke-linejoin="round" stroke-miterlimit="10" stroke-width="6" x1="150" x2="150" y1="178" y2="230"/><circle cx="160.375" cy="192.125" r="2.625" stroke="#000000" stroke-miterlimit="10" stroke-width="2"/><circle cx="160.375" cy="212.125" r="2.625" stroke="#000000" stroke-miterlimit="10" stroke-width="2"/><circle cx="138.375" cy="192.125" r="2.625" stroke="#000000" stroke-miterlimit="10" stroke-width="2"/><circle cx="138.375" cy="212.125" r="2.625" stroke="#000000" stroke-miterlimit="10" stroke-width="2"/></svg>