<?xml version="1.0" ?><!DOCTYPE svg  PUBLIC '-//W3C//DTD SVG 1.1//EN'  'http://www.w3.org/Graphics/SVG/1.1/DTD/svg11.dtd'><svg enable-background="new 0 0 300 300" height="300px" id="Layer_1" version="1.1" viewBox="0 0 300 300" width="300px" xml:space="preserve" xmlns="http://www.w3.org/2000/svg" xmlns:xlink="http://www.w3.org/1999/xlink"><g><g><rect fill="none" height="21" stroke="#000000" stroke-linecap="round" stroke-linejoin="round" stroke-miterlimit="10" stroke-width="6" width="21" x="132" y="79"/><rect fill="none" height="21" stroke="#000000" stroke-linecap="round" stroke-linejoin="round" stroke-miterlimit="10" stroke-width="6" width="21" x="92" y="79"/><rect fill="none" height="21" stroke="#000000" stroke-linecap="round" stroke-linejoin="round" stroke-miterlimit="10" stroke-width="6" width="21" x="132" y="116"/><rect fill="none" height="21" stroke="#000000" stroke-linecap="round" stroke-linejoin="round" stroke-miterlimit="10" stroke-width="6" width="21" x="92" y="116"/><rect fill="none" height="21" stroke="#000000" stroke-linecap="round" stroke-linejoin="round" stroke-miterlimit="10" stroke-width="6" width="21" x="132" y="152"/><rect fill="none" height="21" stroke="#000000" stroke-linecap="round" stroke-linejoin="round" stroke-miterlimit="10" stroke-width="6" width="21" x="92" y="152"/><polyline fill="none" points="    139,228 139,195 106,195 106,228   " stroke="#000000" stroke-linecap="round" stroke-linejoin="round" stroke-miterlimit="10" stroke-width="6"/><path d="    M168,62.132c0-1.656-0.759-3.132-2.415-3.132h-85C78.929,59,77,60.476,77,62.132v175c0,1.656,1.887,2.868,3.543,2.868    l84.979,0.889c1.656,0,2.479,1.111,2.479-0.889V62.132z" fill="none" stroke="#000000" stroke-linecap="round" stroke-linejoin="round" stroke-miterlimit="10" stroke-width="6"/></g><path d="   M182.189,174.222c2.251-0.473,4.585-0.722,6.976-0.722c18.64,0,33.75,15.11,33.75,33.75S207.805,241,189.165,241   c-2.33,0-4.604-0.236-6.802-0.686" fill="none" stroke="#000000" stroke-linecap="round" stroke-linejoin="round" stroke-miterlimit="10" stroke-width="6"/><polyline fill="none" points="   207,210 185,210 185,190  " stroke="#000000" stroke-linecap="round" stroke-linejoin="round" stroke-miterlimit="10" stroke-width="6"/></g></svg>